<svg width="240" height="240" viewBox="0 0 240 240" fill="none" xmlns="http://www.w3.org/2000/svg">
<path fill-rule="evenodd" clip-rule="evenodd" d="M234.358 156.442C233.75 158.348 233.095 160.235 232.394 162.102L77.8964 7.60383C79.7622 6.90609 81.6512 6.25301 83.5624 5.64597L234.358 156.442ZM70.912 10.4714C72.8697 9.59412 74.8565 8.76728 76.8711 7.99268L232.004 163.126C231.229 165.136 230.4 167.121 229.52 169.08L70.912 10.4714ZM237.26 94.4731C236.499 90.9573 235.586 87.5038 234.529 84.119L155.872 5.46146C152.474 4.39576 149.014 3.47819 145.502 2.7157L237.26 94.4731ZM143.714 2.34184C140.72 1.73974 137.689 1.25009 134.626 0.877147L239.096 105.348C238.721 102.277 238.231 99.2468 237.632 96.2598L143.714 2.34184ZM237.99 141.998C237.598 144.11 237.149 146.204 236.647 148.278L91.735 3.3665C93.8081 2.86684 95.9038 2.42029 98.0208 2.02847L237.99 141.998ZM84.6399 5.30932C86.6042 4.70585 88.5913 4.15087 90.6002 3.64589L236.366 149.412C235.86 151.416 235.303 153.401 234.696 155.366L84.6399 5.30932ZM227.52 66.658C223.856 59.2762 219.46 52.3448 214.436 45.9496L194.129 25.6429C187.694 20.5854 180.741 16.179 173.375 12.5125L227.52 66.658ZM170.644 11.1961C166.533 9.2776 162.3 7.5868 157.963 6.13851L233.857 82.032C232.414 77.6933 230.733 73.4718 228.83 69.3815L170.644 11.1961ZM239.323 132.878C239.573 130.535 239.755 128.175 239.867 125.799L114.213 0.145075C112.697 0.219287 111.176 0.322172 109.651 0.454192C108.812 0.526843 107.976 0.607968 107.142 0.697474L239.323 132.878ZM105.871 0.840684C103.632 1.10482 101.415 1.42948 99.2195 1.81289L238.207 140.8C238.592 138.601 238.917 136.384 239.18 134.15L105.871 0.840684ZM239.899 115.188C239.824 113.349 239.706 111.503 239.546 109.651C239.468 108.747 239.379 107.845 239.281 106.947L133.028 0.69352C130.309 0.399566 127.565 0.197521 124.801 0.090329L239.899 115.188ZM123.339 0.0425471C120.765 -0.0258916 118.174 -0.0120909 115.569 0.0863065L239.923 124.441C240.015 121.862 240.025 119.265 239.95 116.653L123.339 0.0425471ZM57.9967 17.2364C56.4188 18.1901 54.8655 19.1788 53.3377 20.2013L219.786 186.649C220.809 185.12 221.797 183.566 222.75 181.99L57.9967 17.2364ZM219.216 187.494L52.4936 20.7714C50.9867 21.7986 49.5051 22.859 48.0498 23.9513L216.038 191.939C217.13 190.482 218.19 189 219.216 187.494ZM215.429 192.745L47.245 24.5606C45.8068 25.6592 44.3948 26.7892 43.01 27.9495L212.043 196.983C213.203 195.596 214.332 194.183 215.429 192.745ZM211.396 197.75C210.23 199.121 209.033 200.466 207.806 201.784L38.2132 32.1906C39.5288 30.9636 40.8725 29.7654 42.2434 28.5972L211.396 197.75ZM202.607 207.037C201.336 208.245 200.038 209.425 198.715 210.578L29.4281 41.2913C30.5786 39.9672 31.7579 38.6681 32.9654 37.395L202.607 207.037ZM203.329 206.345L33.6567 36.6721C34.9037 35.3789 36.1799 34.1132 37.4844 32.876L207.122 202.513C205.887 203.818 204.622 205.096 203.329 206.345ZM58.8815 16.7069C60.5246 15.7331 62.1939 14.797 63.8883 13.9L226.088 176.099C225.191 177.792 224.255 179.461 223.28 181.105L58.8815 16.7069ZM69.9391 10.9127C68.2079 11.7072 66.5 12.5413 64.8164 13.4138L226.574 175.172C227.448 173.487 228.283 171.78 229.078 170.052L69.9391 10.9127ZM197.956 211.233L28.7736 42.051C27.6003 43.4243 26.4579 44.8239 25.3473 46.2485L193.761 214.662C195.186 213.55 196.584 212.407 197.956 211.233ZM192.964 215.279C191.487 216.413 189.982 217.513 188.45 218.579L21.4334 51.5627C22.4978 50.0315 23.5973 48.5256 24.7308 47.0462L192.964 215.279ZM187.613 219.156L20.8566 52.4001C19.8212 53.9166 18.8201 55.4575 17.8541 57.0215L182.992 222.159C184.557 221.193 186.098 220.191 187.613 219.156ZM182.115 222.696C180.525 223.659 178.911 224.587 177.272 225.477L14.5353 62.7405C15.4257 61.104 16.3534 59.4897 17.3173 57.8989L182.115 222.696ZM157.332 234.066C155.237 234.75 153.115 235.378 150.968 235.949L4.04093 89.0221C4.61326 86.8803 5.24381 84.7604 5.93091 82.6644L157.332 234.066ZM158.395 233.714L6.28422 81.6035C6.92017 79.7232 7.60177 77.8627 8.32779 76.0232L163.981 231.676C162.142 232.399 160.279 233.079 158.395 233.714ZM143.634 237.653C145.727 237.236 147.797 236.764 149.846 236.241L3.74732 90.1427C3.22097 92.1922 2.74782 94.2613 2.3293 96.3484L143.634 237.653ZM164.992 231.273L8.73182 75.013C9.45859 73.2196 10.2277 71.4467 11.0381 69.6956L170.314 228.971C168.563 229.779 166.789 230.547 164.992 231.273ZM171.277 228.521L11.4891 68.7324C12.3002 67.0198 13.151 65.3284 14.0403 63.6597L176.353 225.972C174.685 226.86 172.993 227.71 171.277 228.521ZM130.349 239.546C131.783 239.422 133.21 239.273 134.628 239.099L0.879949 105.351C0.605504 107.602 0.394059 109.869 0.247302 112.152L127.833 239.738C128.67 239.682 129.509 239.619 130.349 239.546ZM1.03969 104.097L135.882 238.94C138.093 238.646 140.283 238.293 142.45 237.883L2.09826 97.5316C1.68588 99.7017 1.33249 101.891 1.03969 104.097ZM0.48081 130.652C0.471814 130.551 0.462942 130.45 0.454192 130.349C0.223152 127.68 0.0813414 125.024 0.0262849 122.383L117.622 239.979C114.851 239.928 112.099 239.781 109.37 239.541L0.48081 130.652ZM119.054 239.997L0.00486916 120.948C-0.0175984 118.446 0.0377898 115.958 0.168913 113.488L126.499 239.818C124.004 239.955 121.522 240.014 119.054 239.997ZM0.630191 132.215C0.935239 135.205 1.34804 138.159 1.86441 141.073L98.9542 238.163C101.874 238.681 104.827 239.093 107.809 239.394L0.630191 132.215ZM4.55438 152.801C3.62863 149.529 2.83656 146.196 2.18489 142.808L97.2187 237.842C93.835 237.19 90.4975 236.394 87.2136 235.461L4.55438 152.801ZM5.1387 154.8C6.36988 158.878 7.80983 162.859 9.44524 166.73L73.2541 230.539C77.1446 232.188 81.1351 233.637 85.2115 234.873L5.1387 154.8ZM19.9254 186.248C16.3629 180.877 13.2172 175.193 10.5387 169.238L70.74 229.439C64.7918 226.755 59.0902 223.598 53.6873 220.01L19.9254 186.248ZM23.1967 190.934C30.4504 200.813 39.1652 209.51 48.9926 216.73L23.1967 190.934Z" fill="url(#paint0_linear_21_221)" fill-opacity="0.7"/>
<defs>
<linearGradient id="paint0_linear_21_221" x1="104.965" y1="-14.715" x2="107.099" y2="266.416" gradientUnits="userSpaceOnUse">
<stop stop-color="#4686E2" stop-opacity="0.71"/>
<stop offset="0.265722" stop-color="#B5878F" stop-opacity="0.80218"/>
<stop offset="0.432396" stop-color="#FB875B" stop-opacity="0.86"/>
<stop offset="0.6772" stop-color="#F29D7C" stop-opacity="0.632296"/>
<stop offset="1" stop-color="#D9D9D9" stop-opacity="0"/>
</linearGradient>
</defs>
</svg>
