<svg width="312" height="383" viewBox="0 0 312 383" fill="none" xmlns="http://www.w3.org/2000/svg">
<path fill-rule="evenodd" clip-rule="evenodd" d="M15.1394 264.416C13.8414 261.262 12.6313 258.08 11.509 254.875L359.262 284.889C357.605 287.851 355.863 290.778 354.036 293.666L15.1394 264.416ZM364.8 274.214C363.23 277.49 361.562 280.731 359.795 283.932L11.1501 253.84C9.96402 250.389 8.87944 246.911 7.89637 243.41L364.8 274.214ZM74.358 342.367C79.1681 346.132 84.1167 349.634 89.1845 352.874L265.959 368.132C271.535 365.804 277.023 363.202 282.403 360.323L74.358 342.367ZM284.002 359.458C288.554 356.966 293.025 354.276 297.404 351.387L61.1111 330.992C64.9433 334.596 68.8876 338.012 72.9324 341.24L284.002 359.458ZM25.5356 285.777C23.7314 282.593 22.0257 279.368 20.4185 276.107L346.812 304.278C344.669 307.209 342.432 310.094 340.101 312.927L25.5356 285.777ZM353.43 294.618C351.542 297.565 349.564 300.471 347.498 303.334L19.906 275.059C18.3686 271.891 16.9237 268.689 15.5714 265.457L353.43 294.618ZM113.986 366.251C126.557 371.87 139.61 376.066 152.901 378.837L198.539 382.776C212.197 382.323 225.816 380.415 239.144 377.053L113.986 366.251ZM242.038 376.299C249.449 374.306 256.764 371.86 263.94 368.961L91.0262 354.037C97.5952 358.132 104.358 361.79 111.274 365.013L242.038 376.299ZM32.8472 297.643C35.0745 300.977 37.4177 304.258 39.8769 307.478L322.269 331.851C324.043 330.203 325.794 328.516 327.52 326.789C328.651 325.658 329.764 324.516 330.861 323.364L32.8472 297.643ZM331.738 322.436C334.367 319.637 336.896 316.778 339.325 313.863L26.1383 286.832C28.0332 290.127 30.0342 293.377 32.1412 296.578L331.738 322.436ZM50.1424 319.814C52.3062 322.204 54.5411 324.554 56.8471 326.858C57.8716 327.882 58.9048 328.892 59.9466 329.888L298.739 350.498C302.599 347.905 306.386 345.155 310.09 342.25L50.1424 319.814ZM311.235 341.345C314.655 338.62 318.003 335.761 321.273 332.768L40.704 308.553C43.389 312.017 46.2093 315.411 49.1649 318.726L311.235 341.345ZM187.483 382.826C179.553 382.633 171.632 381.951 163.77 380.779L187.483 382.826ZM7.6107 242.381L365.258 273.25C366.645 270.314 367.953 267.35 369.182 264.361L5.27536 232.952C5.97307 236.11 6.75152 239.255 7.6107 242.381ZM5.05234 231.929L369.577 263.391C370.802 260.366 371.945 257.316 373.009 254.245L3.24139 222.33C3.76298 225.542 4.36663 228.742 5.05234 231.929ZM3.07891 221.312C2.59208 218.209 2.18169 215.097 1.84777 211.978L376.154 244.284C375.293 247.297 374.356 250.294 373.343 253.27L3.07891 221.312ZM1.02405 201.675C1.18833 204.776 1.42768 207.874 1.74205 210.965L376.431 243.304C377.271 240.31 378.035 237.299 378.726 234.275L1.02405 201.675ZM0.754404 191.421C0.753341 194.504 0.826288 197.587 0.973299 200.667L378.948 233.29C379.619 230.278 380.217 227.253 380.741 224.217L0.754404 191.421ZM0.757366 190.417C0.77443 187.348 0.864845 184.278 1.02867 181.212L382.21 214.112C381.849 217.159 381.416 220.198 380.909 223.228L0.757366 190.417ZM1.95068 170.057C2.28414 167.08 2.6873 164.11 3.16019 161.148L383.528 193.978C383.489 196.974 383.38 199.97 383.202 202.963L1.95068 170.057ZM1.84188 171.051L383.14 203.961C382.941 207.018 382.67 210.072 382.325 213.118L1.08465 180.213C1.264 177.155 1.51642 174.1 1.84188 171.051ZM3.32091 160.159L383.538 192.975C383.562 189.894 383.512 186.813 383.388 183.734L5.04495 151.08C4.39685 154.094 3.82216 157.122 3.32091 160.159ZM5.25946 150.094C5.94227 146.998 6.70265 143.915 7.54066 140.849L382.676 173.226C382.977 176.388 383.2 179.556 383.345 182.727L5.25946 150.094ZM7.81139 139.868L382.577 172.214C382.263 169.097 381.873 165.987 381.407 162.885L10.5604 130.877C9.56887 133.856 8.65254 136.854 7.81139 139.868ZM10.8881 129.902C11.9058 126.899 13.0001 123.917 14.1712 120.957L379.552 152.493C380.196 155.606 380.763 158.732 381.251 161.868L10.8881 129.902ZM29.4658 90.5789C31.4414 87.4 33.519 84.2664 35.6986 81.1828L365.21 109.623C366.821 113.028 368.325 116.471 369.724 119.947L29.4658 90.5789ZM28.8774 91.5319L370.138 120.986C371.385 124.137 372.544 127.314 373.616 130.514L23.8042 100.322C25.4112 97.3572 27.1023 94.426 28.8774 91.5319ZM42.9521 71.5774C40.6656 74.4152 38.472 77.3032 36.3713 80.2371L364.711 108.576C363.147 105.32 361.485 102.099 359.725 98.918L42.9521 71.5774ZM23.2878 101.281L373.959 131.547C374.991 134.685 375.939 137.844 376.805 141.021L18.8509 110.126C20.2489 107.148 21.7278 104.199 23.2878 101.281ZM18.4012 111.091L377.081 142.049C377.914 145.174 378.665 148.315 379.337 151.471L14.5582 119.987C15.7607 116.996 17.0416 114.03 18.4012 111.091ZM56.7781 56.1853C55.1542 57.81 53.5657 59.4566 52.0124 61.1241L352.597 87.0675C350.478 83.819 348.25 80.6207 345.914 77.4778L60.2256 52.8202C59.0658 53.9245 57.9166 55.0463 56.7781 56.1853ZM353.285 88.1306L51.1523 62.0536C48.5735 64.8587 46.0937 67.7221 43.7128 70.6393L359.138 97.8636C357.292 94.5747 355.341 91.3287 353.285 88.1306ZM326.446 55.1194C326.782 55.4502 327.117 55.7825 327.451 56.1163C330.473 59.1371 333.374 62.2338 336.152 65.4003L71.868 42.59C75.5475 39.6102 79.3119 36.7871 83.1521 34.1207L326.446 55.1194ZM70.7556 43.4978L337.097 66.4856C339.894 69.7226 342.565 73.0312 345.11 76.4047L61.1981 51.9004C64.3121 48.9757 67.5 46.1748 70.7556 43.4978ZM325.32 54.0184C321.624 50.4359 317.819 47.0319 313.917 43.8064L97.425 25.1211C93.0167 27.6344 88.6871 30.337 84.448 33.2288L325.32 54.0184ZM298.377 32.2337C303.221 35.4725 307.95 38.9561 312.547 42.6844L98.9685 24.2506C104.13 21.3713 109.396 18.7494 114.749 16.3849L298.377 32.2337ZM296.629 31.0792C290.486 27.0692 284.164 23.4485 277.696 20.217L137.254 8.09544C130.286 10.1744 123.414 12.6583 116.674 15.5473L296.629 31.0792ZM243.284 7.01522C254.188 10.027 264.878 14.0216 275.213 18.999L139.918 7.32165C150.946 4.20487 162.198 2.09591 173.531 0.994803L243.284 7.01522ZM237.486 5.51104C218.489 0.899039 198.923 -0.76873 179.514 0.507527L237.486 5.51104Z" fill="url(#paint0_linear_21_222)" fill-opacity="0.7"/>
<defs>
<linearGradient id="paint0_linear_21_222" x1="348.815" y1="340.495" x2="57.5706" y2="-0.485696" gradientUnits="userSpaceOnUse">
<stop stop-color="#4686E2" stop-opacity="0.71"/>
<stop offset="0.265722" stop-color="#B5878F" stop-opacity="0.80218"/>
<stop offset="0.432396" stop-color="#FB875B" stop-opacity="0.86"/>
<stop offset="0.6772" stop-color="#F29D7C" stop-opacity="0.632296"/>
<stop offset="1" stop-color="#D9D9D9" stop-opacity="0"/>
</linearGradient>
</defs>
</svg>
